<svg xmlns="http://www.w3.org/2000/svg" viewBox="0 0 261.31 250"><g id="Layer_2" data-name="Layer 2"><g id="Layer_1-2" data-name="Layer 1"><path d="M144.79,8.73A58.48,58.48,0,1,0,203.26,67.2,58.47,58.47,0,0,0,144.79,8.73Zm9.75,77.54a9.75,9.75,0,1,1-19.49,0V48.14a9.75,9.75,0,1,1,19.49,0Z"/><rect x="28.27" y="48.14" width="39.83" height="18.64" rx="9.32"/><rect x="221.48" y="48.14" width="39.83" height="18.64" rx="9.32"/><rect x="38.02" y="4.5" width="39.83" height="18.64" rx="9.32" transform="translate(11.33 -23.27) rotate(25.1)"/><rect x="211.74" y="4.5" width="39.83" height="18.64" rx="9.32" transform="translate(447.29 -71.93) rotate(154.9)"/><rect x="38.02" y="91.36" width="39.83" height="18.64" rx="9.32" transform="translate(-37.23 34.08) rotate(-25.1)"/><rect x="211.74" y="91.36" width="39.83" height="18.64" rx="9.32" transform="translate(398.73 290.1) rotate(-154.9)"/><path d="M0,154.24s44.06-21.83,57.86-19.13c8.12,1.58,99.76,40.8,99.76,40.8,11.63,5.41,6.4,21.53,1.53,23-.9.27-2.13.57-2.07,2.17,0,.57.42.84.79,1.16,2.67,1.71,7.26.61,11.77-1.39l58.88-24.71c20.5-10.23,28.55,15.61,16.29,23.3l-85.92,48.3c-6.48,3.82-14.59,2.47-23.67-1.93l-80.4-31.76c-3.49-1.59-7.59-2.11-13.48.54L0,231.43Z"/></g></g></svg>