<svg xmlns="http://www.w3.org/2000/svg" viewBox="0 0 130.15 250"><g id="Layer_2" data-name="Layer 2"><g id="Layer_1-2" data-name="Layer 1"><path d="M84,151.56v6.18q0,42.76,0,85.52c0,6.67-.08,6.73-6.83,6.74H41.58c-6.83,0-6.84,0-6.84-6.64q0-43,0-86v-5.79H6.66c-6.14,0-6.63-.49-6.64-6.66Q0,125,0,105.06c0-5.88.43-6.28,6.43-6.29,9.22,0,18.43,0,28.29,0,0-6.58-.09-12.67,0-18.76.2-12.1-.93-24.24,2.79-36.15C46,16.75,68.33,0,96.67,0c9.41,0,18.82.09,28.23,0,3.72,0,5.27,1.4,5.25,5.16q-.15,21.39,0,42.77c0,3.78-1.64,5.19-5.29,5.16-9.73-.09-19.46-.05-29.2,0-7.83,0-11.54,3.61-11.67,11.65-.16,10,.09,20.09-.11,30.13-.06,3.44,1.47,4,4.4,4,11.84-.12,23.69-.07,35.53,0,5.73,0,6.48,1,5.17,6.71-3.16,13.54-6.4,27.06-9.4,40.64-.88,4-2.56,5.69-6.9,5.54C103.32,151.34,93.93,151.56,84,151.56Z"/></g></g></svg>