<svg xmlns="http://www.w3.org/2000/svg" viewBox="0 0 232.73 250"><defs><style>.cls-1{fill:#02232a;}</style></defs><g id="Layer_2" data-name="Layer 2"><g id="Layer_1-2" data-name="Layer 1"><path class="cls-1" d="M232.73,141.35c-.86,11.8-1.9,34.34-4.33,56.73-3,27.26-23.14,45.86-50.48,48.62-26.62,2.68-53.28,4-80,2.89-16.44-.71-32.89-1.91-49.23-3.82-22.31-2.61-41.59-23-44.35-46.37A607.78,607.78,0,0,1,1.17,89.34c.9-14.16,1.58-28.43,4-42.36C9.51,22.52,29.52,5.84,54.27,3.4,83.13.56,112-.92,141,.62c14.69.78,29.41,1.87,44,3.79,21.86,2.87,40.67,23.37,43.46,46.38C231.64,77.3,232.71,103.93,232.73,141.35ZM116.19,189.46a55.9,55.9,0,0,0,28-7.38c34.22-19.56,42.78-66.92,17.89-98.76C141.28,56.71,103.19,53,78.5,75.06,57.1,94.22,50.15,125.69,62,152,72.42,175.27,90.4,188.13,116.19,189.46ZM167,57.27c.06,7.34,5.89,13.53,12.69,13.47s12.6-6.36,12.54-13.64c-.06-7.5-5.65-13.36-12.69-13.32S166.92,49.86,167,57.27Z"/><path class="cls-1" d="M157.59,122.76c-.39,16.64-5.54,28.9-17.13,38C124,173.59,101.13,171.5,87,156c-17-18.64-15.46-48.47,3.31-65.23,22-19.61,56.55-8.77,65.1,20.49A96.38,96.38,0,0,1,157.59,122.76Z"/></g></g></svg>