<svg xmlns="http://www.w3.org/2000/svg" viewBox="0 0 221.6 250"><defs><style>.cls-1{fill:#02232a;}</style></defs><g id="Layer_2" data-name="Layer 2"><g id="Layer_1-2" data-name="Layer 1"><path class="cls-1" d="M86.54,88.48c.16,3.25.29,6.06.44,9.18l11.6,1.21v41.57c-3.64-.29-7.2-.86-10.75-.82-25.23.25-41.63,27.18-30.43,49.74a13.11,13.11,0,0,0,8.32,7.13A34.6,34.6,0,0,0,111,163.59q.15-78.79.1-157.58V0h41.05l1.34,10h10.79c.63,12.83,3.74,24.62,11.74,34.31,8.48,10.27,21,11.5,33.15,13,.72,3,.5,7.2,2.43,8.77,2.21,1.79,6.32,1.23,10,1.74V107.9c-10.72,3.08-33-3.45-57-17v5.28c0,26,0,52.05,0,78.07A76.07,76.07,0,0,1,87.32,250c-19.71-.36-36.8-7.55-51.24-21-5.92-5.5-12.49-10.47-17.56-16.66-19.78-24.15-24-51.28-11.24-79.66C20.49,103.38,44.47,88.78,76.63,87.6a34,34,0,0,1,4.28.18C82.64,87.94,84.35,88.21,86.54,88.48Z"/></g></g></svg>