<svg xmlns="http://www.w3.org/2000/svg" viewBox="0 0 289.07 250"><g id="Layer_2" data-name="Layer 2"><g id="Layer_1-2" data-name="Layer 1"><path d="M288.6,7.24a11.17,11.17,0,0,0-12.75-7L11.17,0h-.05A11,11,0,0,0,.47,7.24a7,7,0,0,0-.42,3.25c9.57,68.51,19.79,143,30.56,211.3,2.69,17.06,15.17,27.62,32.67,27.79q40.62.4,81.26.42t81.25-.42c17.5-.17,30-10.73,32.67-27.79C269.23,153.46,279.46,79,289,10.49A6.91,6.91,0,0,0,288.6,7.24ZM204.17,24.69c-15.79,20.48-35.43,30.88-59.63,31.46-24.21-.58-43.85-11-59.64-31.46C69.7,40,53.76,53.25,29.48,54.15c-1.93-10.53-3.31-24.76-5.63-36.79h0L22.6,10.11a6.06,6.06,0,0,1,6-7.1l231.89.2a6.06,6.06,0,0,1,6,7.09L265.25,17l.05-.08c-2.37,12.12-3.76,26.56-5.71,37.21C235.31,53.25,219.37,40,204.17,24.69Z"/></g></g></svg>