<svg xmlns="http://www.w3.org/2000/svg" viewBox="0 0 289.07 250"><defs><style>.cls-1{fill:#02232a;}</style></defs><g id="Layer_2" data-name="Layer 2"><g id="Layer_1-2" data-name="Layer 1"><path class="cls-1" d="M288.6,7.24c-3-8.39-14.77-9.84-19.77-2.48a9.35,9.35,0,0,0-1.25,2.56c-3.92,13.22-5.48,33.16-8,46.82-24.28-.9-40.22-14.2-55.42-29.46-15.79,20.48-35.43,30.88-59.63,31.47-24.21-.59-43.85-11-59.64-31.47C69.7,39.94,53.76,53.24,29.48,54.14c-2.51-13.66-4.07-33.6-8-46.82a9.35,9.35,0,0,0-1.25-2.56C15.24-2.6,3.43-1.15.47,7.24a7,7,0,0,0-.42,3.25c9.57,68.51,19.79,143,30.56,211.3,2.69,17.06,15.17,27.62,32.67,27.79q40.62.39,81.26.42t81.25-.42c17.5-.17,30-10.73,32.67-27.79C269.23,153.45,279.46,79,289,10.49A6.91,6.91,0,0,0,288.6,7.24Z"/></g></g></svg>