<svg xmlns="http://www.w3.org/2000/svg" viewBox="0 0 157.87 250"><g id="Layer_2" data-name="Layer 2"><g id="Layer_1-2" data-name="Layer 1"><path d="M142.27,129.12c13.56-18.11,17.51-38.59,14.8-60.76A209.4,209.4,0,0,0,139,4.91C137.39,1.37,137.29,0,131.36,0Q105.16.14,78.94.14T26.51,0c-5.93,0-6,1.37-7.67,4.91a209.11,209.11,0,0,0-18,63.45C-1.91,90.53,2.05,111,15.61,129.12c13,17.29,30.41,27.23,52,30.84.09,1.66.22,2.83.22,4,0,20.06-.13,40.13.1,60.19.06,4.49-1.65,5.37-5.64,5.3-11.39-.21-22.79-.12-34.18-.05-7.4,0-11.41,3.58-11.52,10C16.49,246,20.62,250,28.12,250q25.41,0,50.82,0t50.81,0c7.5,0,11.63-4,11.52-10.57-.11-6.4-4.12-9.94-11.52-10-11.39-.07-22.79-.16-34.17.05-4,.07-5.7-.81-5.65-5.3C90.16,204.1,90,184,90,164c0-1.18.12-2.35.21-4C111.85,156.35,129.32,146.41,142.27,129.12Zm-124.53-59c.3-1.77.44-3.23.82-4.63,3.74-13.94,7.62-27.84,11.22-41.81.91-3.53,2.36-4.91,6.2-4.89q21.48.12,43,.12t43-.12c3.84,0,5.3,1.36,6.2,4.89,3.6,14,7.48,27.87,11.23,41.81.37,1.4.51,2.86.82,4.63Z"/></g></g></svg>