<svg width="21" height="23" viewBox="0 0 21 23" fill="none" xmlns="http://www.w3.org/2000/svg">
<path fill-rule="evenodd" clip-rule="evenodd" d="M13.2322 15.5315C10.0335 18.2153 5.35131 18.004 2.38614 14.8978C-0.79538 11.565 -0.79538 6.16143 2.38614 2.8286C5.56766 -0.504228 10.7259 -0.504228 13.9074 2.8286C16.8726 5.93479 17.0743 10.8397 14.5124 14.1905L20.7349 20.7089C21.0884 21.0792 21.0884 21.6796 20.7349 22.05C20.3814 22.4203 19.8082 22.4203 19.4547 22.05L13.2322 15.5315ZM3.66629 13.5568C1.19177 10.9646 1.19177 6.76183 3.66629 4.16963C6.1408 1.57743 10.1528 1.57743 12.6273 4.16963C15.1 6.75993 15.1018 10.9584 12.6328 13.5511C12.6309 13.553 12.6291 13.5549 12.6273 13.5568C12.6255 13.5587 12.6237 13.5606 12.6219 13.5625C10.1469 16.149 6.13899 16.1471 3.66629 13.5568Z" fill="white"/>
</svg>
